<svg xmlns="http://www.w3.org/2000/svg" viewBox="0 0 1024 1024"><defs><style>.b7c7a311-5e67-4f02-965c-ed64044e9bde{fill:#016dc9;}</style></defs><title>Plan de travail 1</title><path class="b7c7a311-5e67-4f02-965c-ed64044e9bde" d="M299.9,362.1V302.8c-54.8-16.8-81.1-67-72.5-113.6a99.3,99.3,0,0,1,101.8-80.9c43.4,2,85,35.7,92.7,83.8S401,285.3,350.4,302.7v58.9h8.9c38.9.1,77.7.1,116.6.4s76.6,11.2,107.5,37.1c43,35.9,66.7,81.3,66.5,138.3-.3,67.1.8,134.3-.4,201.4-1.3,73.7-44.1,140.1-116.8,166.4-26.5,9.6-54,11.3-82.2,10.3-37.9-1.4-75.8-.1-113.8,0-52.7.1-105.4.3-158.1.2C88.8,915.6,16.9,854.4,2.5,766A148.9,148.9,0,0,1,.6,742.9C.5,673-.9,603,1,533.1c2-72.3,37.1-125.4,102.8-156.8,20.7-9.9,43.3-14.4,66.6-14.3C213.4,362.2,256.4,362.1,299.9,362.1ZM320.5,415h0c-51.6,0-103.2-.3-154.8.1-21.5.1-41.1,7.3-58.8,19.3-37.6,25.4-52.8,62.3-53,106.3-.3,65.5-.4,130.9.2,196.4a156.9,156.9,0,0,0,6.2,40.8c15.1,51.1,60,84.2,115.9,84.5,99.8.6,199.7.4,299.5.1,26.5-.1,50.7-8,71.9-24.5,29.8-23.3,46.1-54.1,47-91.3,1.5-69.9,1.3-139.8,1.5-209.7,0-17.8-2.7-35.3-10.4-51.6-22.2-46.2-59.9-69.1-110.4-70.1S372.1,415,320.5,415Zm3.8-160a47.3,47.3,0,0,0,47.6-47.3c.1-28-22.5-47.7-46-48.8-28.7-1.5-49.7,25-49.2,48.7C277.3,233.9,298,255,324.3,255Z"/><path class="b7c7a311-5e67-4f02-965c-ed64044e9bde" d="M906.3,346.9v96.8c0,16.1-7,23.1-23.2,23.2H844.8c-14.3,0-21.9-7.3-22.1-22.1-.2-29.4-.1-58.8-.1-88.2v-9.2H744.9c-7.2,0-14.4.1-21.6-.2-12.6-.5-20-8.3-19.9-20.7s0-27.7.1-41.6,7.1-20.9,21.1-20.9h98V231.1c0-23-.1-46,0-69,.1-11.8,6.8-18.7,18.5-18.8,15.5-.2,31.1-.2,46.6,0,11.1.1,18.5,7.7,18.5,19,.1,33.3,0,66.5,0,100.9h9.2l87.4-.2c14.9-.1,21.1,6.1,21.2,21.1,0,13.4,0,26.7-.1,40-.1,17.7-5.3,22.8-22.7,22.8Z"/><path class="b7c7a311-5e67-4f02-965c-ed64044e9bde" d="M310.5,818.1c-43.9-.9-91.3-24.3-129.4-67.2-9.8-11.1-10.8-22.3-3.5-31.5,8.7-11.1,23.3-11.5,34.2-1.4s19.5,19.1,30.5,26.9c58,41.3,129.4,35.9,181.3-13.2,4.5-4.2,8.6-8.6,13-12.9,9.8-9.6,22.8-10.8,32.1-3s11,21,1.8,32.6c-14.7,18.7-33,33.5-53.6,45.2C388.3,809.9,357.4,818.3,310.5,818.1Z"/><path class="b7c7a311-5e67-4f02-965c-ed64044e9bde" d="M512.3,586.4c-1.3,34.7-32,55.9-59.2,54.7-30.4-1.2-56-29.2-54.5-59.1s28.9-56.4,58.7-54.9C488.6,528.6,513.9,555.8,512.3,586.4Z"/><path class="b7c7a311-5e67-4f02-965c-ed64044e9bde" d="M250.7,584.8c-.4,31-26.6,56.9-57,56.4S137,614,137.4,583.9,165,526,195.2,527.2,251.4,553.3,250.7,584.8Z"/></svg>